<?xml version="1.0" encoding="utf-8"?>
<!-- Generator: Adobe Illustrator 18.0.0, SVG Export Plug-In . SVG Version: 6.00 Build 0)  -->
<!DOCTYPE svg PUBLIC "-//W3C//DTD SVG 1.1//EN" "http://www.w3.org/Graphics/SVG/1.1/DTD/svg11.dtd">
<svg version="1.1" xmlns="http://www.w3.org/2000/svg" xmlns:xlink="http://www.w3.org/1999/xlink" x="0px" y="0px"
	 viewBox="0 0 61 61" enable-background="new 0 0 61 61" xml:space="preserve">
<g id="locked">
	<g>
		<defs>
			<path id="SVGID_1_" d="M-244.6-921c-0.9-8.2-7.8-14.6-16.2-14.6c-8.1,0-14.8,5.9-16,13.6c-0.7-0.1-1.4-0.2-2.2-0.2
				c-7.9,0-14.4,6.4-14.4,14.4c0,7.9,6.4,14.4,14.4,14.4h28.7c7.9,0,14.4-6.4,14.4-14.4C-235.9-913.7-239.5-918.8-244.6-921z"/>
		</defs>
		<clipPath id="SVGID_2_">
			<use xlink:href="#SVGID_1_"  overflow="visible"/>
		</clipPath>
		<g clip-path="url(#SVGID_2_)">
			<defs>
				<rect id="SVGID_3_" x="-1048.1" y="-1681.4" width="2919.2" height="1735.3"/>
			</defs>
			<clipPath id="SVGID_4_">
				<use xlink:href="#SVGID_3_"  overflow="visible"/>
			</clipPath>
		</g>
		
			<use xlink:href="#SVGID_1_"  overflow="visible" fill-rule="evenodd" clip-rule="evenodd" fill="none" stroke="#5AAAFA" stroke-width="1.3" stroke-linecap="round" stroke-miterlimit="10"/>
	</g>
	<g>
		<defs>
			<path id="SVGID_5_" d="M-735.8-926.7c-1,0-1.9-0.8-1.9-1.8c0-1,0.8-1.8,1.9-1.8c1,0,1.9,0.8,1.9,1.8
				C-733.9-927.5-734.7-926.7-735.8-926.7z M-728.4-929.4c-0.5-3.5-3.6-6.3-7.4-6.3c-3.8,0-6.9,2.7-7.4,6.3h-7.5v1.8h7.5
				c0.5,3.5,3.6,6.3,7.4,6.3c3.8,0,6.9-2.7,7.4-6.3h33.6v-1.8H-728.4z"/>
		</defs>
		<clipPath id="SVGID_6_">
			<use xlink:href="#SVGID_5_"  overflow="visible"/>
		</clipPath>
		<g clip-path="url(#SVGID_6_)">
			<defs>
				<rect id="SVGID_7_" x="-1558.9" y="-1461" width="3101.8" height="1843.8"/>
			</defs>
			<clipPath id="SVGID_8_">
				<use xlink:href="#SVGID_7_"  overflow="visible"/>
			</clipPath>
		</g>
	</g>
	<g>
		<defs>
			<path id="SVGID_9_" d="M-709.6-912.4c-1,0-1.9-0.8-1.9-1.8s0.8-1.8,1.9-1.8c1,0,1.9,0.8,1.9,1.8S-708.6-912.4-709.6-912.4z
				 M-709.6-921.3c-3.8,0-6.9,2.7-7.4,6.3h-33.6v1.8h33.6c0.5,3.5,3.6,6.3,7.4,6.3s6.9-2.7,7.4-6.3h7.5v-1.8h-7.5
				C-702.7-918.6-705.8-921.3-709.6-921.3z"/>
		</defs>
		<clipPath id="SVGID_10_">
			<use xlink:href="#SVGID_9_"  overflow="visible"/>
		</clipPath>
		<g clip-path="url(#SVGID_10_)">
			<defs>
				<rect id="SVGID_11_" x="-1558.9" y="-1461" width="3101.8" height="1843.8"/>
			</defs>
			<clipPath id="SVGID_12_">
				<use xlink:href="#SVGID_11_"  overflow="visible"/>
			</clipPath>
		</g>
	</g>
	<g>
		<defs>
			<path id="SVGID_13_" d="M-735.8-898.1c-1,0-1.9-0.8-1.9-1.8s0.8-1.8,1.9-1.8c1,0,1.9,0.8,1.9,1.8S-734.7-898.1-735.8-898.1z
				 M-735.8-907c-3.8,0-6.9,2.7-7.4,6.3h-7.5v1.8h7.5c0.5,3.5,3.6,6.3,7.4,6.3c3.8,0,6.9-2.7,7.4-6.3h33.6v-1.8h-33.6
				C-728.8-904.3-732-907-735.8-907z"/>
		</defs>
		<clipPath id="SVGID_14_">
			<use xlink:href="#SVGID_13_"  overflow="visible"/>
		</clipPath>
		<g clip-path="url(#SVGID_14_)">
			<defs>
				<rect id="SVGID_15_" x="-1558.9" y="-1461" width="3101.8" height="1843.8"/>
			</defs>
			<clipPath id="SVGID_16_">
				<use xlink:href="#SVGID_15_"  overflow="visible"/>
			</clipPath>
		</g>
	</g>
	<g>
		<defs>
			<path id="SVGID_17_" d="M-564.9-929.6c1.4,0,2.6,1.2,2.6,2.6s-1.2,2.6-2.6,2.6s-2.6-1.2-2.6-2.6S-566.3-929.6-564.9-929.6z
				 M-598.8-919.2h40v12.2h-40V-919.2z M-598.8-905.3h40v12.2h-40V-905.3z M-600.5-891.4h43.4v-43.4h-43.4V-891.4z"/>
		</defs>
		<clipPath id="SVGID_18_">
			<use xlink:href="#SVGID_17_"  overflow="visible"/>
		</clipPath>
		<g clip-path="url(#SVGID_18_)">
			<defs>
				<rect id="SVGID_19_" x="-1857.1" y="-1367.7" width="2582.2" height="1535"/>
			</defs>
			<clipPath id="SVGID_20_">
				<use xlink:href="#SVGID_19_"  overflow="visible"/>
			</clipPath>
		</g>
	</g>
	<g id="locked_1_">
		<g>
			<g>
				<g>
					<path fill="#5AAAFA" d="M1.9,10.7l49.3,27.7c0.6,0.4,1.1,1.1,1.1,1.9c0,0.2,0,0.4-0.1,0.5l2.9,1.6H37.7L35,45.1
						c-1.2,1.2-2.9,1.9-4.5,1.9c-1,0-2.1-0.3-3-0.8L5.9,34.5c3-3,7-4.5,10.9-4.5c2.8,0,5.7,0.8,8.2,2.3l-2.3-6L5.3,16.6
						C3.2,15.4,1.9,13.1,1.9,10.7 M0.4,8.1v2.6c0,3,1.6,5.7,4.2,7.2l16.9,9.5l0.8,2c-1.8-0.6-3.6-0.9-5.5-0.9c-4.5,0-8.8,1.8-12,5
						l-1.4,1.4l1.8,1l21.6,11.7c1.1,0.6,2.4,1,3.7,1c2.1,0,4.1-0.8,5.6-2.3l2.2-2.2H55h5.7l-5-2.8L53.7,40c-0.1-1.2-0.8-2.3-1.8-2.9
						L2.6,9.4L0.4,8.1L0.4,8.1z"/>
				</g>
				<path fill="none" stroke="#5AAAFA" stroke-width="1.5" stroke-miterlimit="10" d="M45.7,34.5c1.8-2.3,1.9-5.5,0.2-7.8l-8.6-11.5
					c-3.4,3.4-4.6,8-3.9,12.3L45.7,34.5z"/>
				<path fill="none" stroke="#5AAAFA" stroke-width="1.5" stroke-miterlimit="10" d="M23.6,22l-4.5-11.7c-0.8-2.1-2.8-3.5-5-3.5
					l4.7,12.5L23.6,22z"/>
			</g>
			<circle fill="#5AAAFA" cx="50" cy="40.3" r="0.7"/>
		</g>
	</g>
</g>
<g id="Layer_1">
</g>
</svg>
