<?xml version="1.0" encoding="utf-8"?>
<!-- Generator: Adobe Illustrator 18.0.0, SVG Export Plug-In . SVG Version: 6.00 Build 0)  -->
<!DOCTYPE svg PUBLIC "-//W3C//DTD SVG 1.1//EN" "http://www.w3.org/Graphics/SVG/1.1/DTD/svg11.dtd">
<svg version="1.1" xmlns="http://www.w3.org/2000/svg" xmlns:xlink="http://www.w3.org/1999/xlink" x="0px" y="0px"
	 viewBox="0 0 60 60" enable-background="new 0 0 60 60" xml:space="preserve">
<g id="locked">
	<g>
		<defs>
			<path id="SVGID_1_" d="M655.1,15.3c-0.9-8.2-7.8-14.6-16.2-14.6c-8.1,0-14.8,5.9-16,13.6c-0.7-0.1-1.4-0.2-2.2-0.2
				c-7.9,0-14.4,6.4-14.4,14.4c0,7.9,6.4,14.4,14.4,14.4h28.7c7.9,0,14.4-6.4,14.4-14.4C663.8,22.6,660.3,17.5,655.1,15.3z"/>
		</defs>
		<clipPath id="SVGID_2_">
			<use xlink:href="#SVGID_1_"  overflow="visible"/>
		</clipPath>
		<g clip-path="url(#SVGID_2_)">
			<defs>
				<rect id="SVGID_3_" x="-148.4" y="-745.1" width="2919.2" height="1735.3"/>
			</defs>
			<clipPath id="SVGID_4_">
				<use xlink:href="#SVGID_3_"  overflow="visible"/>
			</clipPath>
		</g>
		
			<use xlink:href="#SVGID_1_"  overflow="visible" fill-rule="evenodd" clip-rule="evenodd" fill="none" stroke="#5AAAFA" stroke-width="1.3" stroke-linecap="round" stroke-miterlimit="10"/>
	</g>
	<g>
		<defs>
			<path id="SVGID_5_" d="M164,9.6c-1,0-1.9-0.8-1.9-1.8c0-1,0.8-1.8,1.9-1.8c1,0,1.9,0.8,1.9,1.8C165.9,8.8,165.1,9.6,164,9.6z
				 M171.4,6.9c-0.5-3.5-3.6-6.3-7.4-6.3s-6.9,2.7-7.4,6.3h-7.5v1.8h7.5c0.5,3.5,3.6,6.3,7.4,6.3s6.9-2.7,7.4-6.3h33.6V6.9H171.4z"
				/>
		</defs>
		<clipPath id="SVGID_6_">
			<use xlink:href="#SVGID_5_"  overflow="visible"/>
		</clipPath>
		<g clip-path="url(#SVGID_6_)">
			<defs>
				<rect id="SVGID_7_" x="-659.1" y="-524.7" width="3101.8" height="1843.8"/>
			</defs>
			<clipPath id="SVGID_8_">
				<use xlink:href="#SVGID_7_"  overflow="visible"/>
			</clipPath>
		</g>
	</g>
	<g>
		<defs>
			<path id="SVGID_9_" d="M190.1,23.9c-1,0-1.9-0.8-1.9-1.8s0.8-1.8,1.9-1.8c1,0,1.9,0.8,1.9,1.8S191.2,23.9,190.1,23.9z
				 M190.1,14.9c-3.8,0-6.9,2.7-7.4,6.3h-33.6V23h33.6c0.5,3.5,3.6,6.3,7.4,6.3c3.8,0,6.9-2.7,7.4-6.3h7.5v-1.8h-7.5
				C197.1,17.7,193.9,14.9,190.1,14.9z"/>
		</defs>
		<clipPath id="SVGID_10_">
			<use xlink:href="#SVGID_9_"  overflow="visible"/>
		</clipPath>
		<g clip-path="url(#SVGID_10_)">
			<defs>
				<rect id="SVGID_11_" x="-659.1" y="-524.7" width="3101.8" height="1843.8"/>
			</defs>
			<clipPath id="SVGID_12_">
				<use xlink:href="#SVGID_11_"  overflow="visible"/>
			</clipPath>
		</g>
	</g>
	<g>
		<defs>
			<path id="SVGID_13_" d="M164,38.2c-1,0-1.9-0.8-1.9-1.8s0.8-1.8,1.9-1.8c1,0,1.9,0.8,1.9,1.8S165.1,38.2,164,38.2z M164,29.3
				c-3.8,0-6.9,2.7-7.4,6.3h-7.5v1.8h7.5c0.5,3.5,3.6,6.3,7.4,6.3s6.9-2.7,7.4-6.3h33.6v-1.8h-33.6C171,32,167.8,29.3,164,29.3z"/>
		</defs>
		<clipPath id="SVGID_14_">
			<use xlink:href="#SVGID_13_"  overflow="visible"/>
		</clipPath>
		<g clip-path="url(#SVGID_14_)">
			<defs>
				<rect id="SVGID_15_" x="-659.1" y="-524.7" width="3101.8" height="1843.8"/>
			</defs>
			<clipPath id="SVGID_16_">
				<use xlink:href="#SVGID_15_"  overflow="visible"/>
			</clipPath>
		</g>
	</g>
	<g>
		<defs>
			<path id="SVGID_17_" d="M334.9,6.6c1.4,0,2.6,1.2,2.6,2.6c0,1.4-1.2,2.6-2.6,2.6s-2.6-1.2-2.6-2.6C332.3,7.8,333.5,6.6,334.9,6.6
				z M301,17.1h40v12.2h-40V17.1z M301,31h40v12.2h-40V31z M299.3,44.9h43.4V1.4h-43.4V44.9z"/>
		</defs>
		<clipPath id="SVGID_18_">
			<use xlink:href="#SVGID_17_"  overflow="visible"/>
		</clipPath>
		<g clip-path="url(#SVGID_18_)">
			<defs>
				<rect id="SVGID_19_" x="-957.3" y="-431.4" width="2582.2" height="1535"/>
			</defs>
			<clipPath id="SVGID_20_">
				<use xlink:href="#SVGID_19_"  overflow="visible"/>
			</clipPath>
		</g>
	</g>
</g>
<g id="Layer_1">
	<path fill="#5AAAFA" d="M46.9,7c0-0.8,0.6-1.4,1.4-1.4c0.8,0,1.4,0.6,1.4,1.4s-0.6,1.4-1.4,1.4C47.6,8.4,46.9,7.7,46.9,7z
		 M48.3,42.3c0.8,0,1.4-0.6,1.4-1.4c0-0.8-0.6-1.4-1.4-1.4c-0.8,0-1.4,0.6-1.4,1.4C46.9,41.6,47.6,42.3,48.3,42.3z M48.3,25.4
		c0.8-0.1,1.4-0.6,1.4-1.4c0-0.8-0.6-1.4-1.4-1.4c-0.8,0-1.4,0.6-1.4,1.4C46.9,24.7,47.6,25.4,48.3,25.4z M54.5,35.2v11.3
		c0,0.4-0.2,0.6-0.6,0.6H6.2c-0.3,0-0.6-0.3-0.6-0.6V35.2c0-0.3,0.3-0.6,0.6-0.6h47.7C54.1,34.5,54.5,34.9,54.5,35.2z M53.2,35.9
		H6.8v10h46.4V35.9z M54.5,18.3v11.3c0,0.3-0.2,0.6-0.6,0.6H6.2c-0.3,0-0.6-0.3-0.6-0.6V18.3c0-0.3,0.3-0.6,0.6-0.6h47.7
		C54.1,17.6,54.5,18,54.5,18.3z M53.2,18.9H6.8v10h46.4V18.9z M54.5,1.3v11.3c0,0.4-0.2,0.6-0.6,0.6H6.2c-0.3,0-0.6-0.3-0.6-0.6V1.3
		c0-0.3,0.3-0.6,0.6-0.6h47.7C54.1,0.7,54.5,1,54.5,1.3z M53.2,2.1H6.8v10h46.4V2.1z"/>
</g>
</svg>
